HIERARCHY
ROOT Hips
{
	OFFSET -3.958830 18.904000 13.208200
	CHANNELS 6 Xposition Yposition Zposition Zrotation Yrotation Xrotation 
	JOINT LHipJoint
	{
		OFFSET 0.000000 0.000000 0.000000
		CHANNELS 3 Zrotation Yrotation Xrotation
		JOINT LeftUpLeg
		{
			OFFSET 1.800000 -1.400000 0.085000
			CHANNELS 3 Zrotation Yrotation Xrotation
			JOINT LeftLeg
			{
				OFFSET 2.215000 -6.000000 0.000000
				CHANNELS 3 Zrotation Yrotation Xrotation
				JOINT LeftFoot
				{
					OFFSET 2.500000 -6.900000 0.000000
					CHANNELS 3 Zrotation Yrotation Xrotation
					JOINT LeftToeBase
					{
						OFFSET 0.200000 -0.500000 1.950000
						CHANNELS 3 Zrotation Yrotation Xrotation
						End Site
						{
							OFFSET 0.000000 0.000000 0.000000
						}
					}
				}
			}
		}
	}
	JOINT RHipJoint
	{
		OFFSET 0.000000 0.000000 0.000000
		CHANNELS 3 Zrotation Yrotation Xrotation
		JOINT RightUpLeg
		{
			OFFSET -1.800000 -1.400000 0.085000
			CHANNELS 3 Zrotation Yrotation Xrotation
			JOINT RightLeg
			{
				OFFSET -2.215000 -6.000000 0.000000
				CHANNELS 3 Zrotation Yrotation Xrotation
				JOINT RightFoot
				{
					OFFSET -2.500000 -6.900000 0.000000
					CHANNELS 3 Zrotation Yrotation Xrotation
					JOINT RightToeBase
					{
						OFFSET -0.200000 -0.500000 1.950000
						CHANNELS 3 Zrotation Yrotation Xrotation
						End Site
						{
							OFFSET 0.000000 0.000000 0.000000
						}
					}
				}
			}
		}
	}
	JOINT LowerBack
	{
		OFFSET 0.000000 0.000000 0.000000
		CHANNELS 3 Zrotation Yrotation Xrotation
		JOINT Spine
		{
			OFFSET -0.087000 1.940000 -0.288900
			CHANNELS 3 Zrotation Yrotation Xrotation
			JOINT Spine1
			{
				OFFSET 0.000000 1.950000 0.060000
				CHANNELS 3 Zrotation Yrotation Xrotation
				JOINT Neck
				{
					OFFSET 0.000000 0.000000 0.000000
					CHANNELS 3 Zrotation Yrotation Xrotation
					JOINT Neck1
					{
						OFFSET 0.000000 1.600000 0.340000
						CHANNELS 3 Zrotation Yrotation Xrotation
						JOINT Head
						{
							OFFSET 0.000000 1.667000 -0.240000
							CHANNELS 3 Zrotation Yrotation Xrotation
							End Site
							{
								OFFSET 0.000000 0.000000 0.000000
							}
						}
					}
				}
				JOINT LeftShoulder
				{
					OFFSET 0.000000 0.000000 0.000000
					CHANNELS 3 Zrotation Yrotation Xrotation
					JOINT LeftArm
					{
						OFFSET 2.700000 1.550000 -0.730000
						CHANNELS 3 Zrotation Yrotation Xrotation
						JOINT LeftForeArm
						{
							OFFSET 5.450000 0.000000 0.000000
							CHANNELS 3 Zrotation Yrotation Xrotation
							JOINT LeftHand
							{
								OFFSET 3.450000 0.000000 0.000000
								CHANNELS 3 Zrotation Yrotation Xrotation
								JOINT LeftHandIndex1
								{
									OFFSET 0.750000 0.000000 0.000000
									CHANNELS 3 Zrotation Yrotation Xrotation
									End Site
									{
										OFFSET 0.000000 0.000000 0.000000
									}
								}
							}
						}
					}
				}
				JOINT RightShoulder
				{
					OFFSET 0.000000 0.000000 0.000000
					CHANNELS 3 Zrotation Yrotation Xrotation
					JOINT RightArm
					{
						OFFSET -2.700000 1.550000 -0.730000
						CHANNELS 3 Zrotation Yrotation Xrotation
						JOINT RightForeArm
						{
							OFFSET -5.450000 0.000000 0.000000
							CHANNELS 3 Zrotation Yrotation Xrotation
							JOINT RightHand
							{
								OFFSET -3.450000 0.000000 0.000000
								CHANNELS 3 Zrotation Yrotation Xrotation
								JOINT RightHandIndex1
								{
									OFFSET -0.750000 0.000000 0.000000
									CHANNELS 3 Zrotation Yrotation Xrotation
									End Site
									{
										OFFSET 0.000000 0.000000 0.000000
									}
								}
							}
						}
					}
				}
			}
		}
	}
}
MOTION
Frames: 10
Frame Time: 0.016667
-1.078700 17.010850 -5.862910 -1.912652 5.693251 2.457982 -15.365662 11.725680 3.932933 19.959898 -2.608177 -37.379999 -2.957787 10.849936 37.882008 -0.056046 7.203989 1.689753 0.534170 0.495470 0.417770 18.406012 -8.761368 4.329562 -27.191788 5.573364 -35.786970 29.117797 -16.874327 32.218184 -1.009444 -7.506421 1.518037 0.323120 -0.191850 0.071920 -3.546442 -2.012902 -9.052237 8.583132 -0.829343 28.013561 -2.352536 2.091863 7.053170 1.947817 -4.478495 -8.269371 -9.723877 0.710253 34.202549 -0.421830 -0.991130 -23.266610 -29.822113 -9.587001 3.601053 -50.596411 -10.279239 -5.732816 -120.450747 -75.993678 96.839760 -3.621618 2.306807 0.440890 -0.191750 0.256920 0.070370 25.674623 15.191231 4.905574 44.716788 16.625439 -5.978357 52.226189 89.827066 39.313915 2.426814 -1.492409 -0.025380 0.202410 -0.143360 -0.158670 
-1.088570 16.863620 -5.922410 -2.124740 5.254219 2.191042 -15.449421 11.414975 4.228835 21.837362 -2.665613 -39.399113 -3.518688 12.233415 41.523492 0.105150 8.010935 1.383423 0.551830 0.511000 0.447300 18.422235 -8.212969 4.620020 -29.609464 5.955782 -37.964895 32.615389 -18.974986 33.832962 -1.242061 -8.135273 1.324100 0.289430 -0.272980 0.063950 -3.429946 -2.366064 -9.436975 8.387628 -1.006648 31.674119 -2.409481 2.390949 4.241411 1.898447 -5.095718 -8.687459 -11.774084 1.418547 37.366059 0.555540 -0.950150 -24.903000 -31.184231 -10.319074 3.563514 -49.343353 -8.348927 -5.686618 -96.490816 -76.355655 69.181144 -3.852578 2.420754 0.519110 -0.278230 0.334900 0.055730 27.146041 16.728759 5.548039 45.442348 13.006186 -10.248187 44.321084 78.546169 26.774096 2.285894 -1.660485 0.003330 0.188770 -0.160620 -0.167160 
-1.096350 16.739450 -5.973370 -2.086884 4.968405 2.148901 -15.543813 11.054295 4.612545 23.705390 -2.903612 -41.787852 -4.581181 13.923847 45.222922 0.276358 8.905013 1.066839 0.567040 0.520090 0.471040 18.429303 -7.712194 4.807011 -31.739812 5.927472 -39.627139 35.482835 -20.740740 34.834278 -1.424213 -8.607792 1.182426 0.268690 -0.329160 0.055020 -3.291851 -2.672744 -9.790958 7.697249 -1.072892 34.566411 -2.395909 2.614656 1.761148 1.881728 -5.563857 -9.241277 -13.756420 2.065717 40.552843 1.596170 -1.100880 -25.693160 -31.802865 -11.189698 3.605461 -48.256422 -6.726871 -6.895642 -83.838561 -72.388165 54.272050 -3.551845 3.064891 0.583960 -0.343270 0.391600 0.045930 27.873955 18.137812 6.183616 45.813259 9.842046 -12.846780 37.015039 68.063871 17.767864 2.227801 -1.612579 0.017120 0.185800 -0.171830 -0.175760 
-1.098290 16.657410 -6.008350 -1.824722 4.725689 2.147675 -15.623999 10.790194 4.919586 25.378807 -3.123524 -43.236908 -6.339940 15.543668 47.356210 0.408856 9.585953 0.831078 0.579840 0.535120 0.482430 18.426080 -7.327171 4.916449 -33.378186 5.667038 -40.869055 37.129333 -22.096546 35.807671 -1.549563 -8.953269 1.080876 0.261400 -0.361180 0.047900 -3.165034 -2.976586 -10.037349 7.076657 -1.088776 36.721290 -2.045577 2.760879 -0.123352 1.827012 -6.202000 -9.628053 -16.216466 3.113754 43.473823 2.141030 -1.326490 -25.884360 -31.971880 -11.660258 3.184422 -47.679962 -6.261136 -8.020155 -74.240348 -66.254345 42.350289 -3.343018 3.276263 0.623560 -0.383560 0.428600 0.039280 28.290969 19.017025 6.691485 45.405485 7.361218 -13.886307 33.028718 60.080029 13.132166 2.221021 -1.530789 0.028090 0.193070 -0.173890 -0.175990 
-1.104070 16.611890 -6.043400 -1.601097 4.327127 2.386726 -15.671095 10.609356 5.127802 26.679940 -3.300482 -44.061642 -7.968768 16.624943 48.009520 0.495511 9.952943 0.707661 0.585830 0.540540 0.486930 18.431968 -7.070285 4.986976 -34.119054 5.462256 -42.207692 37.444000 -22.837398 36.820630 -1.611529 -9.148734 1.024845 0.251670 -0.381950 0.043740 -3.104636 -3.179220 -10.181271 6.681343 -1.277501 38.408426 -1.954104 2.705360 -1.590612 1.775278 -6.834630 -9.940798 -18.535338 4.133942 45.183021 2.362170 -1.617530 -25.552290 -31.903643 -11.738705 2.673790 -47.290492 -5.806006 -8.721445 -69.185891 -60.659100 34.932239 -3.253272 3.307726 0.638590 -0.408650 0.447630 0.035920 28.458903 19.295617 7.223912 45.472739 4.684343 -14.592643 33.898128 56.364800 12.311964 2.240550 -1.505015 0.041200 0.190060 -0.177260 -0.171180 
-1.120490 16.597110 -6.068260 -1.632332 3.723568 2.968777 -15.689107 10.453811 5.290893 28.061523 -3.230542 -44.430808 -9.797386 17.431622 47.429383 0.546285 10.130429 0.650180 0.598820 0.561020 0.487100 18.456344 -6.915175 4.997736 -33.890653 5.468096 -43.612784 36.424739 -23.084289 38.141222 -1.630072 -9.247637 0.999382 0.254960 -0.392570 0.041810 -3.119757 -3.247098 -10.242449 6.876580 -1.735669 39.417167 -2.258947 2.470147 -2.548341 1.747134 -7.565588 -9.729538 -20.553155 4.959218 44.944954 2.133780 -1.815920 -25.429820 -31.643767 -10.655465 1.740913 -47.237213 -5.714056 -8.910602 -65.306397 -55.549194 29.275435 -3.214463 3.313422 0.629850 -0.418710 0.453920 0.042230 28.222372 18.315537 7.335701 45.228614 2.093471 -14.876710 38.671905 54.954940 13.819711 2.279717 -1.522377 0.058080 0.185460 -0.187140 -0.159840 
-1.136200 16.585370 -6.070690 -1.644729 2.338265 3.480938 -15.694621 10.308247 5.413220 29.765379 -2.946126 -43.811910 -12.502423 18.509216 46.070177 0.602210 10.345439 0.593602 0.588860 0.555080 0.474750 18.488411 -6.812815 4.986038 -33.053577 5.645773 -45.302629 34.151049 -23.491357 40.870015 -1.650451 -9.466800 0.944369 0.252140 -0.373030 0.037170 -3.174538 -3.225782 -10.269497 6.905908 -2.319528 39.965799 -3.023097 1.948936 -3.260726 1.748378 -8.119825 -9.320046 -21.734464 5.804608 43.578130 1.708030 -1.517640 -24.812640 -31.429908 -9.192573 0.794052 -46.745725 -5.311353 -9.083429 -61.598109 -51.629488 24.944878 -3.212857 3.303471 0.607610 -0.404150 0.437010 0.046760 27.904652 16.647555 7.242631 44.666102 -0.571125 -14.821040 46.330885 53.839455 16.537762 2.332367 -1.546349 0.057160 0.192850 -0.182910 -0.150180 
-1.159590 16.581710 -6.061020 -1.516263 1.037745 3.944811 -15.689265 10.207352 5.520452 31.248993 -2.674511 -42.987138 -15.033130 19.309964 44.432219 0.635094 10.483564 0.556762 0.583290 0.551960 0.467100 18.518701 -6.805931 4.902657 -31.638660 5.913929 -46.809431 29.863437 -23.404838 44.767143 -1.647768 -9.679469 0.882235 0.256830 -0.357700 0.037640 -3.246387 -3.147070 -10.260239 6.978948 -3.129946 40.013220 -3.946266 1.110832 -3.602340 1.821730 -8.410629 -8.896114 -22.102445 6.575667 42.246475 1.028680 -0.928770 -24.092130 -30.883668 -7.816843 0.025364 -45.842604 -4.679275 -9.256361 -57.597693 -47.403351 20.642198 -3.217906 3.293564 0.586370 -0.384670 0.420300 0.050470 27.101366 14.838507 6.946096 43.818991 -2.507265 -14.518608 53.558965 52.113419 18.739241 2.379543 -1.574016 0.053740 0.193010 -0.179800 -0.147250 
-1.185320 16.589180 -6.056100 -1.236176 -0.403129 4.473088 -15.670496 10.191264 5.539938 32.030095 -2.730925 -41.858673 -16.922545 19.455261 42.497392 0.614239 10.439568 0.573699 0.572130 0.531350 0.469060 18.543448 -6.875666 4.816588 -29.785745 6.010853 -48.461746 24.379650 -22.785881 49.283033 -1.632579 -9.864303 0.820459 0.255830 -0.347210 0.041730 -3.328575 -3.074340 -10.211795 7.029010 -4.050829 39.719471 -5.116598 0.126722 -3.471202 2.067057 -8.562784 -8.660524 -22.219192 6.891187 41.058848 0.007440 -0.501160 -23.490340 -29.971289 -6.878990 -0.604984 -45.244313 -4.798864 -9.192292 -53.215521 -43.914266 16.997524 -3.231590 3.268982 0.577510 -0.365660 0.404440 0.044480 25.624287 13.294314 6.908287 43.202344 -4.654926 -14.443989 60.188991 49.996636 20.270996 2.407417 -1.600066 0.042000 0.191720 -0.170110 -0.156200 
-1.194930 16.603790 -6.053080 -0.882313 -1.895369 4.844468 -15.646731 10.206595 5.576931 32.541517 -2.973707 -40.660993 -19.040576 19.711283 40.862342 0.626344 10.455817 0.577969 0.562020 0.515600 0.473070 18.562712 -7.011884 4.657366 -27.601686 5.944462 -49.748320 17.832533 -21.168436 53.674745 -1.579249 -9.870276 0.812535 0.253390 -0.339530 0.043460 -3.411287 -2.994854 -10.141756 7.255270 -5.158732 39.556257 -6.438121 -0.968285 -3.150864 2.450070 -8.697627 -8.621524 -22.167139 6.819754 39.662900 -1.044210 -0.284100 -23.151050 -29.319237 -6.600467 -0.956212 -44.781980 -5.178321 -9.063794 -50.208587 -41.712660 14.817178 -3.239202 3.252846 0.564730 -0.349320 0.391940 0.040220 24.174807 12.409891 7.127456 41.773477 -6.580617 -14.230076 67.326363 48.235422 22.109913 2.425638 -1.640809 0.034830 0.192090 -0.165400 -0.161680 
